<svg width="27" height="27" viewBox="0 0 27 27" fill="none" xmlns="http://www.w3.org/2000/svg">
<path d="M14.1348 10.2463L15.1384 7.49805H8.31125H5.56553L4.56195 10.2463L3.00712 14.4978L2 17.2425H4.74572H11.5729L12.58 14.4978H5.75282L7.30767 10.2463H14.1348Z" fill="white"/>
<path d="M15.7463 7.49805L14.7427 10.2463H24.3156L25.3227 7.49805H15.7463Z" fill="#BDBDBD"/>
<path d="M12.1843 17.2425H21.7572L22.7608 14.4978H13.1879L12.1843 17.2425Z" fill="#BDBDBD"/>
<path d="M10.17 22.7461H19.7429L20.75 19.9978H11.1736L10.17 22.7461Z" fill="#BDBDBD"/>
<path d="M10.4209 4L9.41382 6.74825H21.4144L22.4179 4H10.4209Z" fill="#F19700"/>
<path d="M6.85547 13.7445H18.8525L19.8596 10.9962H7.85905L6.85547 13.7445Z" fill="#F19700"/>
<path d="M3.56189 22.7462H9.56216L11.3326 17.9041H5.33228L3.56189 22.7462Z" fill="#F19700"/>
</svg>
